<svg xmlns="http://www.w3.org/2000/svg" width="720" height="200" viewBox="0 0 720 200" font-family="-apple-system,Segoe UI,sans-serif" role="img" aria-label="일별 클론·조회 추이">
<title>일별 클론·조회 추이 (2026-07-29 ~ 2026-08-21)</title>
<line x1="34" y1="174.0" x2="710" y2="174.0" stroke="#8b949e" stroke-opacity=".25"/><text x="28" y="178.0" font-size="10" fill="#8b949e" text-anchor="end">0</text><line x1="34" y1="95.0" x2="710" y2="95.0" stroke="#8b949e" stroke-opacity=".25"/><text x="28" y="99.0" font-size="10" fill="#8b949e" text-anchor="end">117</text><line x1="34" y1="16.0" x2="710" y2="16.0" stroke="#8b949e" stroke-opacity=".25"/><text x="28" y="20.0" font-size="10" fill="#8b949e" text-anchor="end">234</text><text x="34.0" y="192" font-size="10" fill="#8b949e" text-anchor="start">07-29</text><text x="386.7" y="192" font-size="10" fill="#8b949e" text-anchor="middle">08-10</text><text x="710.0" y="192" font-size="10" fill="#8b949e" text-anchor="end">08-21</text>
<polyline fill="none" stroke="#3b82f6" stroke-width="2" points="34.0,174.0 63.4,172.0 92.8,173.3 122.2,172.0 151.6,163.9 181.0,171.3 210.3,149.0 239.7,172.0 269.1,167.9 298.5,174.0 327.9,171.3 357.3,170.6 386.7,171.3 416.1,126.1 445.5,16.0 474.9,158.5 504.3,167.2 533.7,171.3 563.0,165.2 592.4,169.9 621.8,165.2 651.2,165.9 680.6,174.0 710.0,174.0"/>
<polyline fill="none" stroke="#f59e0b" stroke-width="2" points="34.0,172.6 63.4,173.3 92.8,174.0 122.2,174.0 151.6,174.0 181.0,174.0 210.3,174.0 239.7,174.0 269.1,174.0 298.5,169.3 327.9,174.0 357.3,174.0 386.7,174.0 416.1,172.0 445.5,159.1 474.9,172.6 504.3,167.9 533.7,174.0 563.0,174.0 592.4,173.3 621.8,173.3 651.2,172.6 680.6,174.0 710.0,174.0"/>
<circle cx="570" cy="12" r="4" fill="#3b82f6"/>
<text x="580" y="16" font-size="11" fill="#8b949e">clones</text>
<circle cx="642" cy="12" r="4" fill="#f59e0b"/>
<text x="652" y="16" font-size="11" fill="#8b949e">views</text>
</svg>
