<svg xmlns="http://www.w3.org/2000/svg" width="720" height="200" viewBox="0 0 720 200" font-family="-apple-system,Segoe UI,sans-serif" role="img" aria-label="일별 클론·조회 추이">
<title>일별 클론·조회 추이 (2026-07-29 ~ 2026-09-25)</title>
<line x1="34" y1="174.0" x2="710" y2="174.0" stroke="#8b949e" stroke-opacity=".25"/><text x="28" y="178.0" font-size="10" fill="#8b949e" text-anchor="end">0</text><line x1="34" y1="95.0" x2="710" y2="95.0" stroke="#8b949e" stroke-opacity=".25"/><text x="28" y="99.0" font-size="10" fill="#8b949e" text-anchor="end">117</text><line x1="34" y1="16.0" x2="710" y2="16.0" stroke="#8b949e" stroke-opacity=".25"/><text x="28" y="20.0" font-size="10" fill="#8b949e" text-anchor="end">234</text><text x="34.0" y="192" font-size="10" fill="#8b949e" text-anchor="start">07-29</text><text x="372.0" y="192" font-size="10" fill="#8b949e" text-anchor="middle">08-27</text><text x="710.0" y="192" font-size="10" fill="#8b949e" text-anchor="end">09-25</text>
<polyline fill="none" stroke="#3b82f6" stroke-width="2" points="34.0,174.0 45.7,172.0 57.3,173.3 69.0,172.0 80.6,163.9 92.3,171.3 103.9,149.0 115.6,172.0 127.2,167.9 138.9,174.0 150.6,171.3 162.2,170.6 173.9,171.3 185.5,126.1 197.2,16.0 208.8,158.5 220.5,167.2 232.1,171.3 243.8,165.2 255.4,169.9 267.1,165.2 278.8,165.9 290.4,163.9 302.1,164.5 313.7,165.2 325.4,169.3 337.0,161.8 348.7,165.2 360.3,164.5 372.0,159.1 383.7,161.2 395.3,162.5 407.0,147.7 418.6,165.9 430.3,164.5 441.9,165.2 453.6,166.6 465.2,163.2 476.9,158.5 488.6,174.0 500.2,174.0 511.9,174.0 523.5,174.0 535.2,174.0 546.8,174.0 558.5,174.0 570.1,174.0 581.8,174.0 593.4,174.0 605.1,174.0 616.8,174.0 628.4,174.0 640.1,174.0 651.7,174.0 663.4,174.0 675.0,174.0 686.7,174.0 698.3,174.0 710.0,174.0"/>
<polyline fill="none" stroke="#f59e0b" stroke-width="2" points="34.0,172.6 45.7,173.3 57.3,174.0 69.0,174.0 80.6,174.0 92.3,174.0 103.9,174.0 115.6,174.0 127.2,174.0 138.9,169.3 150.6,174.0 162.2,174.0 173.9,174.0 185.5,172.0 197.2,159.1 208.8,172.6 220.5,167.9 232.1,174.0 243.8,174.0 255.4,173.3 267.1,173.3 278.8,172.6 290.4,168.6 302.1,174.0 313.7,173.3 325.4,174.0 337.0,174.0 348.7,172.6 360.3,171.3 372.0,174.0 383.7,174.0 395.3,173.3 407.0,169.3 418.6,171.3 430.3,174.0 441.9,174.0 453.6,173.3 465.2,173.3 476.9,174.0 488.6,174.0 500.2,174.0 511.9,174.0 523.5,174.0 535.2,174.0 546.8,174.0 558.5,174.0 570.1,174.0 581.8,174.0 593.4,174.0 605.1,174.0 616.8,174.0 628.4,174.0 640.1,174.0 651.7,174.0 663.4,174.0 675.0,174.0 686.7,174.0 698.3,174.0 710.0,174.0"/>
<circle cx="570" cy="12" r="4" fill="#3b82f6"/>
<text x="580" y="16" font-size="11" fill="#8b949e">clones</text>
<circle cx="642" cy="12" r="4" fill="#f59e0b"/>
<text x="652" y="16" font-size="11" fill="#8b949e">views</text>
</svg>
